<?xml version="1.0" encoding="UTF-8" standalone="no"?>
<!DOCTYPE svg PUBLIC "-//W3C//DTD SVG 1.1//EN"
 "http://www.w3.org/Graphics/SVG/1.1/DTD/svg11.dtd">
<!-- Generated by graphviz version 2.40.1 (0)
 -->
<!-- Title: snakemake_dag Pages: 1 -->
<svg width="509pt" height="836pt"
 viewBox="0.00 0.00 509.00 836.00" xmlns="http://www.w3.org/2000/svg" xmlns:xlink="http://www.w3.org/1999/xlink">
<g id="graph0" class="graph" transform="scale(1 1) rotate(0) translate(4 832)">
<title>snakemake_dag</title>
<polygon fill="#ffffff" stroke="transparent" points="-4,4 -4,-832 505,-832 505,4 -4,4"/>
<!-- 0 -->
<g id="node1" class="node">
<title>0</title>
<path fill="none" stroke="#d85656" stroke-width="2" d="M274,-36C274,-36 211,-36 211,-36 205,-36 199,-30 199,-24 199,-24 199,-12 199,-12 199,-6 205,0 211,0 211,0 274,0 274,0 280,0 286,-6 286,-12 286,-12 286,-24 286,-24 286,-30 280,-36 274,-36"/>
<text text-anchor="middle" x="242.5" y="-15.5" font-family="sans" font-size="10.00" fill="#000000">evaluate_calls</text>
</g>
<!-- 1 -->
<g id="node2" class="node">
<title>1</title>
<path fill="none" stroke="#d89556" stroke-width="2" d="M266,-108C266,-108 219,-108 219,-108 213,-108 207,-102 207,-96 207,-96 207,-84 207,-84 207,-78 213,-72 219,-72 219,-72 266,-72 266,-72 272,-72 278,-78 278,-84 278,-84 278,-96 278,-96 278,-102 272,-108 266,-108"/>
<text text-anchor="middle" x="242.5" y="-87.5" font-family="sans" font-size="10.00" fill="#000000">m6A_caller</text>
</g>
<!-- 1&#45;&gt;0 -->
<g id="edge1" class="edge">
<title>1&#45;&gt;0</title>
<path fill="none" stroke="#c0c0c0" stroke-width="2" d="M242.5,-71.8314C242.5,-64.131 242.5,-54.9743 242.5,-46.4166"/>
<polygon fill="#c0c0c0" stroke="#c0c0c0" stroke-width="2" points="246.0001,-46.4132 242.5,-36.4133 239.0001,-46.4133 246.0001,-46.4132"/>
</g>
<!-- 2 -->
<g id="node3" class="node">
<title>2</title>
<path fill="none" stroke="#56d8a2" stroke-width="2" d="M273,-180C273,-180 212,-180 212,-180 206,-180 200,-174 200,-168 200,-168 200,-156 200,-156 200,-150 206,-144 212,-144 212,-144 273,-144 273,-144 279,-144 285,-150 285,-156 285,-156 285,-168 285,-168 285,-174 279,-180 273,-180"/>
<text text-anchor="middle" x="242.5" y="-159.5" font-family="sans" font-size="10.00" fill="#000000">sample_sheet</text>
</g>
<!-- 2&#45;&gt;1 -->
<g id="edge2" class="edge">
<title>2&#45;&gt;1</title>
<path fill="none" stroke="#c0c0c0" stroke-width="2" d="M242.5,-143.8314C242.5,-136.131 242.5,-126.9743 242.5,-118.4166"/>
<polygon fill="#c0c0c0" stroke="#c0c0c0" stroke-width="2" points="246.0001,-118.4132 242.5,-108.4133 239.0001,-118.4133 246.0001,-118.4132"/>
</g>
<!-- 3 -->
<g id="node4" class="node">
<title>3</title>
<path fill="none" stroke="#9fd856" stroke-width="2" d="M325.5,-252C325.5,-252 263.5,-252 263.5,-252 257.5,-252 251.5,-246 251.5,-240 251.5,-240 251.5,-228 251.5,-228 251.5,-222 257.5,-216 263.5,-216 263.5,-216 325.5,-216 325.5,-216 331.5,-216 337.5,-222 337.5,-228 337.5,-228 337.5,-240 337.5,-240 337.5,-246 331.5,-252 325.5,-252"/>
<text text-anchor="middle" x="294.5" y="-231.5" font-family="sans" font-size="10.00" fill="#000000">format_output</text>
</g>
<!-- 3&#45;&gt;2 -->
<g id="edge3" class="edge">
<title>3&#45;&gt;2</title>
<path fill="none" stroke="#c0c0c0" stroke-width="2" d="M281.3782,-215.8314C275.4501,-207.6232 268.3271,-197.7606 261.8067,-188.7323"/>
<polygon fill="#c0c0c0" stroke="#c0c0c0" stroke-width="2" points="264.4908,-186.4708 255.7985,-180.4133 258.816,-190.5693 264.4908,-186.4708"/>
</g>
<!-- 4 -->
<g id="node5" class="node">
<title>4</title>
<path fill="none" stroke="#d8b456" stroke-width="2" d="M419.5,-324C419.5,-324 389.5,-324 389.5,-324 383.5,-324 377.5,-318 377.5,-312 377.5,-312 377.5,-300 377.5,-300 377.5,-294 383.5,-288 389.5,-288 389.5,-288 419.5,-288 419.5,-288 425.5,-288 431.5,-294 431.5,-300 431.5,-300 431.5,-312 431.5,-312 431.5,-318 425.5,-324 419.5,-324"/>
<text text-anchor="middle" x="404.5" y="-303.5" font-family="sans" font-size="10.00" fill="#000000">pileup</text>
</g>
<!-- 4&#45;&gt;3 -->
<g id="edge5" class="edge">
<title>4&#45;&gt;3</title>
<path fill="none" stroke="#c0c0c0" stroke-width="2" d="M377.309,-288.2022C363.2685,-279.0121 345.947,-267.6744 330.7813,-257.7478"/>
<polygon fill="#c0c0c0" stroke="#c0c0c0" stroke-width="2" points="332.4261,-254.6413 322.1423,-252.0931 328.5925,-260.4982 332.4261,-254.6413"/>
</g>
<!-- 5 -->
<g id="node6" class="node">
<title>5</title>
<path fill="none" stroke="#56d882" stroke-width="2" d="M489,-396C489,-396 342,-396 342,-396 336,-396 330,-390 330,-384 330,-384 330,-372 330,-372 330,-366 336,-360 342,-360 342,-360 489,-360 489,-360 495,-360 501,-366 501,-372 501,-372 501,-384 501,-384 501,-390 495,-396 489,-396"/>
<text text-anchor="middle" x="415.5" y="-375.5" font-family="sans" font-size="10.00" fill="#000000">samtools_sort_index_dedupped</text>
</g>
<!-- 5&#45;&gt;4 -->
<g id="edge7" class="edge">
<title>5&#45;&gt;4</title>
<path fill="none" stroke="#c0c0c0" stroke-width="2" d="M412.7242,-359.8314C411.5478,-352.131 410.1489,-342.9743 408.8414,-334.4166"/>
<polygon fill="#c0c0c0" stroke="#c0c0c0" stroke-width="2" points="412.2833,-333.7699 407.3131,-324.4133 405.3636,-334.8272 412.2833,-333.7699"/>
</g>
<!-- 6 -->
<g id="node7" class="node">
<title>6</title>
<path fill="none" stroke="#bed856" stroke-width="2" d="M416,-468C416,-468 345,-468 345,-468 339,-468 333,-462 333,-456 333,-456 333,-444 333,-444 333,-438 339,-432 345,-432 345,-432 416,-432 416,-432 422,-432 428,-438 428,-444 428,-444 428,-456 428,-456 428,-462 422,-468 416,-468"/>
<text text-anchor="middle" x="380.5" y="-447.5" font-family="sans" font-size="10.00" fill="#000000">umitools_dedup</text>
</g>
<!-- 6&#45;&gt;5 -->
<g id="edge8" class="edge">
<title>6&#45;&gt;5</title>
<path fill="none" stroke="#c0c0c0" stroke-width="2" d="M389.332,-431.8314C393.1986,-423.8771 397.8206,-414.369 402.0968,-405.5723"/>
<polygon fill="#c0c0c0" stroke="#c0c0c0" stroke-width="2" points="405.3249,-406.9371 406.5491,-396.4133 399.0293,-403.8768 405.3249,-406.9371"/>
</g>
<!-- 7 -->
<g id="node8" class="node">
<title>7</title>
<path fill="none" stroke="#56b1d8" stroke-width="2" d="M412.5,-540C412.5,-540 318.5,-540 318.5,-540 312.5,-540 306.5,-534 306.5,-528 306.5,-528 306.5,-516 306.5,-516 306.5,-510 312.5,-504 318.5,-504 318.5,-504 412.5,-504 412.5,-504 418.5,-504 424.5,-510 424.5,-516 424.5,-516 424.5,-528 424.5,-528 424.5,-534 418.5,-540 412.5,-540"/>
<text text-anchor="middle" x="365.5" y="-519.5" font-family="sans" font-size="10.00" fill="#000000">samtools_sort_index</text>
</g>
<!-- 7&#45;&gt;6 -->
<g id="edge9" class="edge">
<title>7&#45;&gt;6</title>
<path fill="none" stroke="#c0c0c0" stroke-width="2" d="M369.2851,-503.8314C370.8894,-496.131 372.797,-486.9743 374.5799,-478.4166"/>
<polygon fill="#c0c0c0" stroke="#c0c0c0" stroke-width="2" points="378.0507,-478.9169 376.6639,-468.4133 371.1979,-477.4892 378.0507,-478.9169"/>
</g>
<!-- 8 -->
<g id="node9" class="node">
<title>8</title>
<path fill="none" stroke="#5692d8" stroke-width="2" d="M393,-612C393,-612 322,-612 322,-612 316,-612 310,-606 310,-600 310,-600 310,-588 310,-588 310,-582 316,-576 322,-576 322,-576 393,-576 393,-576 399,-576 405,-582 405,-588 405,-588 405,-600 405,-600 405,-606 399,-612 393,-612"/>
<text text-anchor="middle" x="357.5" y="-591.5" font-family="sans" font-size="10.00" fill="#000000">hisat2_mapping</text>
</g>
<!-- 8&#45;&gt;7 -->
<g id="edge10" class="edge">
<title>8&#45;&gt;7</title>
<path fill="none" stroke="#c0c0c0" stroke-width="2" d="M359.5187,-575.8314C360.3743,-568.131 361.3917,-558.9743 362.3426,-550.4166"/>
<polygon fill="#c0c0c0" stroke="#c0c0c0" stroke-width="2" points="365.8283,-550.7386 363.4541,-540.4133 358.8711,-549.9656 365.8283,-550.7386"/>
</g>
<!-- 9 -->
<g id="node10" class="node">
<title>9</title>
<path fill="none" stroke="#68d856" stroke-width="2" stroke-dasharray="5,2" d="M287,-684C287,-684 232,-684 232,-684 226,-684 220,-678 220,-672 220,-672 220,-660 220,-660 220,-654 226,-648 232,-648 232,-648 287,-648 287,-648 293,-648 299,-654 299,-660 299,-660 299,-672 299,-672 299,-678 293,-684 287,-684"/>
<text text-anchor="middle" x="259.5" y="-663.5" font-family="sans" font-size="10.00" fill="#000000">hisat2_index</text>
</g>
<!-- 9&#45;&gt;8 -->
<g id="edge11" class="edge">
<title>9&#45;&gt;8</title>
<path fill="none" stroke="#c0c0c0" stroke-width="2" d="M284.2295,-647.8314C296.4162,-638.8779 311.2823,-627.9558 324.4312,-618.2955"/>
<polygon fill="#c0c0c0" stroke="#c0c0c0" stroke-width="2" points="326.7918,-620.9042 332.7784,-612.1628 322.6473,-615.263 326.7918,-620.9042"/>
</g>
<!-- 21 -->
<g id="node22" class="node">
<title>21</title>
<path fill="none" stroke="#5692d8" stroke-width="2" d="M195,-612C195,-612 124,-612 124,-612 118,-612 112,-606 112,-600 112,-600 112,-588 112,-588 112,-582 118,-576 124,-576 124,-576 195,-576 195,-576 201,-576 207,-582 207,-588 207,-588 207,-600 207,-600 207,-606 201,-612 195,-612"/>
<text text-anchor="middle" x="159.5" y="-591.5" font-family="sans" font-size="10.00" fill="#000000">hisat2_mapping</text>
</g>
<!-- 9&#45;&gt;21 -->
<g id="edge24" class="edge">
<title>9&#45;&gt;21</title>
<path fill="none" stroke="#c0c0c0" stroke-width="2" d="M234.2658,-647.8314C221.712,-638.7927 206.3717,-627.7476 192.8609,-618.0198"/>
<polygon fill="#c0c0c0" stroke="#c0c0c0" stroke-width="2" points="194.8866,-615.1655 184.7261,-612.1628 190.7964,-620.8463 194.8866,-615.1655"/>
</g>
<!-- 10 -->
<g id="node11" class="node">
<title>10</title>
<path fill="none" stroke="#56d863" stroke-width="2" d="M383.5,-684C383.5,-684 331.5,-684 331.5,-684 325.5,-684 319.5,-678 319.5,-672 319.5,-672 319.5,-660 319.5,-660 319.5,-654 325.5,-648 331.5,-648 331.5,-648 383.5,-648 383.5,-648 389.5,-648 395.5,-654 395.5,-660 395.5,-660 395.5,-672 395.5,-672 395.5,-678 389.5,-684 383.5,-684"/>
<text text-anchor="middle" x="357.5" y="-663.5" font-family="sans" font-size="10.00" fill="#000000">decompress</text>
</g>
<!-- 10&#45;&gt;8 -->
<g id="edge12" class="edge">
<title>10&#45;&gt;8</title>
<path fill="none" stroke="#c0c0c0" stroke-width="2" d="M357.5,-647.8314C357.5,-640.131 357.5,-630.9743 357.5,-622.4166"/>
<polygon fill="#c0c0c0" stroke="#c0c0c0" stroke-width="2" points="361.0001,-622.4132 357.5,-612.4133 354.0001,-622.4133 361.0001,-622.4132"/>
</g>
<!-- 11 -->
<g id="node12" class="node">
<title>11</title>
<path fill="none" stroke="#5673d8" stroke-width="2" stroke-dasharray="5,2" d="M375,-756C375,-756 340,-756 340,-756 334,-756 328,-750 328,-744 328,-744 328,-732 328,-732 328,-726 334,-720 340,-720 340,-720 375,-720 375,-720 381,-720 387,-726 387,-732 387,-732 387,-744 387,-744 387,-750 381,-756 375,-756"/>
<text text-anchor="middle" x="357.5" y="-735.5" font-family="sans" font-size="10.00" fill="#000000">cutadapt</text>
</g>
<!-- 11&#45;&gt;10 -->
<g id="edge13" class="edge">
<title>11&#45;&gt;10</title>
<path fill="none" stroke="#c0c0c0" stroke-width="2" d="M357.5,-719.8314C357.5,-712.131 357.5,-702.9743 357.5,-694.4166"/>
<polygon fill="#c0c0c0" stroke="#c0c0c0" stroke-width="2" points="361.0001,-694.4132 357.5,-684.4133 354.0001,-694.4133 361.0001,-694.4132"/>
</g>
<!-- 12 -->
<g id="node13" class="node">
<title>12</title>
<path fill="none" stroke="#56d0d8" stroke-width="2" stroke-dasharray="5,2" d="M395,-828C395,-828 320,-828 320,-828 314,-828 308,-822 308,-816 308,-816 308,-804 308,-804 308,-798 314,-792 320,-792 320,-792 395,-792 395,-792 401,-792 407,-798 407,-804 407,-804 407,-816 407,-816 407,-822 401,-828 395,-828"/>
<text text-anchor="middle" x="357.5" y="-813" font-family="sans" font-size="10.00" fill="#000000">umitools_extract</text>
<text text-anchor="middle" x="357.5" y="-802" font-family="sans" font-size="10.00" fill="#000000">sample: test1</text>
</g>
<!-- 12&#45;&gt;11 -->
<g id="edge14" class="edge">
<title>12&#45;&gt;11</title>
<path fill="none" stroke="#c0c0c0" stroke-width="2" d="M357.5,-791.8314C357.5,-784.131 357.5,-774.9743 357.5,-766.4166"/>
<polygon fill="#c0c0c0" stroke="#c0c0c0" stroke-width="2" points="361.0001,-766.4132 357.5,-756.4133 354.0001,-766.4133 361.0001,-766.4132"/>
</g>
<!-- 13 -->
<g id="node14" class="node">
<title>13</title>
<path fill="none" stroke="#56d8c1" stroke-width="2" stroke-dasharray="5,2" d="M325,-324C325,-324 160,-324 160,-324 154,-324 148,-318 148,-312 148,-312 148,-300 148,-300 148,-294 154,-288 160,-288 160,-288 325,-288 325,-288 331,-288 337,-294 337,-300 337,-300 337,-312 337,-312 337,-318 331,-324 325,-324"/>
<text text-anchor="middle" x="242.5" y="-303.5" font-family="sans" font-size="10.00" fill="#000000">anno_to_base_remove_redundance</text>
</g>
<!-- 13&#45;&gt;3 -->
<g id="edge6" class="edge">
<title>13&#45;&gt;3</title>
<path fill="none" stroke="#c0c0c0" stroke-width="2" d="M255.6218,-287.8314C261.5499,-279.6232 268.6729,-269.7606 275.1933,-260.7323"/>
<polygon fill="#c0c0c0" stroke="#c0c0c0" stroke-width="2" points="278.184,-262.5693 281.2015,-252.4133 272.5092,-258.4708 278.184,-262.5693"/>
</g>
<!-- 16 -->
<g id="node17" class="node">
<title>16</title>
<path fill="none" stroke="#9fd856" stroke-width="2" d="M221.5,-252C221.5,-252 159.5,-252 159.5,-252 153.5,-252 147.5,-246 147.5,-240 147.5,-240 147.5,-228 147.5,-228 147.5,-222 153.5,-216 159.5,-216 159.5,-216 221.5,-216 221.5,-216 227.5,-216 233.5,-222 233.5,-228 233.5,-228 233.5,-240 233.5,-240 233.5,-246 227.5,-252 221.5,-252"/>
<text text-anchor="middle" x="190.5" y="-231.5" font-family="sans" font-size="10.00" fill="#000000">format_output</text>
</g>
<!-- 13&#45;&gt;16 -->
<g id="edge19" class="edge">
<title>13&#45;&gt;16</title>
<path fill="none" stroke="#c0c0c0" stroke-width="2" d="M229.3782,-287.8314C223.4501,-279.6232 216.3271,-269.7606 209.8067,-260.7323"/>
<polygon fill="#c0c0c0" stroke="#c0c0c0" stroke-width="2" points="212.4908,-258.4708 203.7985,-252.4133 206.816,-262.5693 212.4908,-258.4708"/>
</g>
<!-- 14 -->
<g id="node15" class="node">
<title>14</title>
<path fill="none" stroke="#d8d356" stroke-width="2" stroke-dasharray="5,2" d="M261.5,-396C261.5,-396 201.5,-396 201.5,-396 195.5,-396 189.5,-390 189.5,-384 189.5,-384 189.5,-372 189.5,-372 189.5,-366 195.5,-360 201.5,-360 201.5,-360 261.5,-360 261.5,-360 267.5,-360 273.5,-366 273.5,-372 273.5,-372 273.5,-384 273.5,-384 273.5,-390 267.5,-396 261.5,-396"/>
<text text-anchor="middle" x="231.5" y="-375.5" font-family="sans" font-size="10.00" fill="#000000">anno_to_base</text>
</g>
<!-- 14&#45;&gt;13 -->
<g id="edge15" class="edge">
<title>14&#45;&gt;13</title>
<path fill="none" stroke="#c0c0c0" stroke-width="2" d="M234.2758,-359.8314C235.4522,-352.131 236.8511,-342.9743 238.1586,-334.4166"/>
<polygon fill="#c0c0c0" stroke="#c0c0c0" stroke-width="2" points="241.6364,-334.8272 239.6869,-324.4133 234.7167,-333.7699 241.6364,-334.8272"/>
</g>
<!-- 15 -->
<g id="node16" class="node">
<title>15</title>
<path fill="none" stroke="#d87556" stroke-width="2" stroke-dasharray="5,2" d="M284.5,-468C284.5,-468 248.5,-468 248.5,-468 242.5,-468 236.5,-462 236.5,-456 236.5,-456 236.5,-444 236.5,-444 236.5,-438 242.5,-432 248.5,-432 248.5,-432 284.5,-432 284.5,-432 290.5,-432 296.5,-438 296.5,-444 296.5,-444 296.5,-456 296.5,-456 296.5,-462 290.5,-468 284.5,-468"/>
<text text-anchor="middle" x="266.5" y="-447.5" font-family="sans" font-size="10.00" fill="#000000">gtf2anno</text>
</g>
<!-- 15&#45;&gt;13 -->
<g id="edge16" class="edge">
<title>15&#45;&gt;13</title>
<path fill="none" stroke="#c0c0c0" stroke-width="2" d="M274.9197,-431.696C282.2184,-413.2408 290.4579,-384.1127 282.5,-360 279.2092,-350.0288 273.2884,-340.3944 266.9936,-332.0924"/>
<polygon fill="#c0c0c0" stroke="#c0c0c0" stroke-width="2" points="269.672,-329.8384 260.6576,-324.2714 264.2328,-334.2448 269.672,-329.8384"/>
</g>
<!-- 15&#45;&gt;14 -->
<g id="edge17" class="edge">
<title>15&#45;&gt;14</title>
<path fill="none" stroke="#c0c0c0" stroke-width="2" d="M257.668,-431.8314C253.8014,-423.8771 249.1794,-414.369 244.9032,-405.5723"/>
<polygon fill="#c0c0c0" stroke="#c0c0c0" stroke-width="2" points="247.9707,-403.8768 240.4509,-396.4133 241.6751,-406.9371 247.9707,-403.8768"/>
</g>
<!-- 16&#45;&gt;2 -->
<g id="edge4" class="edge">
<title>16&#45;&gt;2</title>
<path fill="none" stroke="#c0c0c0" stroke-width="2" d="M203.6218,-215.8314C209.5499,-207.6232 216.6729,-197.7606 223.1933,-188.7323"/>
<polygon fill="#c0c0c0" stroke="#c0c0c0" stroke-width="2" points="226.184,-190.5693 229.2015,-180.4133 220.5092,-186.4708 226.184,-190.5693"/>
</g>
<!-- 17 -->
<g id="node18" class="node">
<title>17</title>
<path fill="none" stroke="#d8b456" stroke-width="2" d="M114.5,-324C114.5,-324 84.5,-324 84.5,-324 78.5,-324 72.5,-318 72.5,-312 72.5,-312 72.5,-300 72.5,-300 72.5,-294 78.5,-288 84.5,-288 84.5,-288 114.5,-288 114.5,-288 120.5,-288 126.5,-294 126.5,-300 126.5,-300 126.5,-312 126.5,-312 126.5,-318 120.5,-324 114.5,-324"/>
<text text-anchor="middle" x="99.5" y="-303.5" font-family="sans" font-size="10.00" fill="#000000">pileup</text>
</g>
<!-- 17&#45;&gt;16 -->
<g id="edge18" class="edge">
<title>17&#45;&gt;16</title>
<path fill="none" stroke="#c0c0c0" stroke-width="2" d="M122.4631,-287.8314C133.6715,-278.9632 147.3209,-268.1637 159.4439,-258.5718"/>
<polygon fill="#c0c0c0" stroke="#c0c0c0" stroke-width="2" points="161.8737,-261.1125 167.5442,-252.1628 157.5303,-255.6229 161.8737,-261.1125"/>
</g>
<!-- 18 -->
<g id="node19" class="node">
<title>18</title>
<path fill="none" stroke="#56d882" stroke-width="2" d="M159,-396C159,-396 12,-396 12,-396 6,-396 0,-390 0,-384 0,-384 0,-372 0,-372 0,-366 6,-360 12,-360 12,-360 159,-360 159,-360 165,-360 171,-366 171,-372 171,-372 171,-384 171,-384 171,-390 165,-396 159,-396"/>
<text text-anchor="middle" x="85.5" y="-375.5" font-family="sans" font-size="10.00" fill="#000000">samtools_sort_index_dedupped</text>
</g>
<!-- 18&#45;&gt;17 -->
<g id="edge20" class="edge">
<title>18&#45;&gt;17</title>
<path fill="none" stroke="#c0c0c0" stroke-width="2" d="M89.0328,-359.8314C90.5301,-352.131 92.3105,-342.9743 93.9745,-334.4166"/>
<polygon fill="#c0c0c0" stroke="#c0c0c0" stroke-width="2" points="97.4465,-334.8975 95.9196,-324.4133 90.5752,-333.5614 97.4465,-334.8975"/>
</g>
<!-- 19 -->
<g id="node20" class="node">
<title>19</title>
<path fill="none" stroke="#bed856" stroke-width="2" d="M158,-468C158,-468 87,-468 87,-468 81,-468 75,-462 75,-456 75,-456 75,-444 75,-444 75,-438 81,-432 87,-432 87,-432 158,-432 158,-432 164,-432 170,-438 170,-444 170,-444 170,-456 170,-456 170,-462 164,-468 158,-468"/>
<text text-anchor="middle" x="122.5" y="-447.5" font-family="sans" font-size="10.00" fill="#000000">umitools_dedup</text>
</g>
<!-- 19&#45;&gt;18 -->
<g id="edge21" class="edge">
<title>19&#45;&gt;18</title>
<path fill="none" stroke="#c0c0c0" stroke-width="2" d="M113.1633,-431.8314C109.0757,-423.8771 104.1896,-414.369 99.6691,-405.5723"/>
<polygon fill="#c0c0c0" stroke="#c0c0c0" stroke-width="2" points="102.6461,-403.7078 94.9624,-396.4133 96.4201,-406.9074 102.6461,-403.7078"/>
</g>
<!-- 20 -->
<g id="node21" class="node">
<title>20</title>
<path fill="none" stroke="#56b1d8" stroke-width="2" d="M181.5,-540C181.5,-540 87.5,-540 87.5,-540 81.5,-540 75.5,-534 75.5,-528 75.5,-528 75.5,-516 75.5,-516 75.5,-510 81.5,-504 87.5,-504 87.5,-504 181.5,-504 181.5,-504 187.5,-504 193.5,-510 193.5,-516 193.5,-516 193.5,-528 193.5,-528 193.5,-534 187.5,-540 181.5,-540"/>
<text text-anchor="middle" x="134.5" y="-519.5" font-family="sans" font-size="10.00" fill="#000000">samtools_sort_index</text>
</g>
<!-- 20&#45;&gt;19 -->
<g id="edge22" class="edge">
<title>20&#45;&gt;19</title>
<path fill="none" stroke="#c0c0c0" stroke-width="2" d="M131.4719,-503.8314C130.1885,-496.131 128.6624,-486.9743 127.2361,-478.4166"/>
<polygon fill="#c0c0c0" stroke="#c0c0c0" stroke-width="2" points="130.6653,-477.7018 125.5689,-468.4133 123.7606,-478.8526 130.6653,-477.7018"/>
</g>
<!-- 21&#45;&gt;20 -->
<g id="edge23" class="edge">
<title>21&#45;&gt;20</title>
<path fill="none" stroke="#c0c0c0" stroke-width="2" d="M153.1914,-575.8314C150.4883,-568.0463 147.2684,-558.7729 144.269,-550.1347"/>
<polygon fill="#c0c0c0" stroke="#c0c0c0" stroke-width="2" points="147.48,-548.7119 140.8935,-540.4133 140.8673,-551.0081 147.48,-548.7119"/>
</g>
<!-- 22 -->
<g id="node23" class="node">
<title>22</title>
<path fill="none" stroke="#56d863" stroke-width="2" d="M185.5,-684C185.5,-684 133.5,-684 133.5,-684 127.5,-684 121.5,-678 121.5,-672 121.5,-672 121.5,-660 121.5,-660 121.5,-654 127.5,-648 133.5,-648 133.5,-648 185.5,-648 185.5,-648 191.5,-648 197.5,-654 197.5,-660 197.5,-660 197.5,-672 197.5,-672 197.5,-678 191.5,-684 185.5,-684"/>
<text text-anchor="middle" x="159.5" y="-663.5" font-family="sans" font-size="10.00" fill="#000000">decompress</text>
</g>
<!-- 22&#45;&gt;21 -->
<g id="edge25" class="edge">
<title>22&#45;&gt;21</title>
<path fill="none" stroke="#c0c0c0" stroke-width="2" d="M159.5,-647.8314C159.5,-640.131 159.5,-630.9743 159.5,-622.4166"/>
<polygon fill="#c0c0c0" stroke="#c0c0c0" stroke-width="2" points="163.0001,-622.4132 159.5,-612.4133 156.0001,-622.4133 163.0001,-622.4132"/>
</g>
<!-- 23 -->
<g id="node24" class="node">
<title>23</title>
<path fill="none" stroke="#5673d8" stroke-width="2" stroke-dasharray="5,2" d="M177,-756C177,-756 142,-756 142,-756 136,-756 130,-750 130,-744 130,-744 130,-732 130,-732 130,-726 136,-720 142,-720 142,-720 177,-720 177,-720 183,-720 189,-726 189,-732 189,-732 189,-744 189,-744 189,-750 183,-756 177,-756"/>
<text text-anchor="middle" x="159.5" y="-735.5" font-family="sans" font-size="10.00" fill="#000000">cutadapt</text>
</g>
<!-- 23&#45;&gt;22 -->
<g id="edge26" class="edge">
<title>23&#45;&gt;22</title>
<path fill="none" stroke="#c0c0c0" stroke-width="2" d="M159.5,-719.8314C159.5,-712.131 159.5,-702.9743 159.5,-694.4166"/>
<polygon fill="#c0c0c0" stroke="#c0c0c0" stroke-width="2" points="163.0001,-694.4132 159.5,-684.4133 156.0001,-694.4133 163.0001,-694.4132"/>
</g>
<!-- 24 -->
<g id="node25" class="node">
<title>24</title>
<path fill="none" stroke="#56d0d8" stroke-width="2" stroke-dasharray="5,2" d="M197,-828C197,-828 122,-828 122,-828 116,-828 110,-822 110,-816 110,-816 110,-804 110,-804 110,-798 116,-792 122,-792 122,-792 197,-792 197,-792 203,-792 209,-798 209,-804 209,-804 209,-816 209,-816 209,-822 203,-828 197,-828"/>
<text text-anchor="middle" x="159.5" y="-813" font-family="sans" font-size="10.00" fill="#000000">umitools_extract</text>
<text text-anchor="middle" x="159.5" y="-802" font-family="sans" font-size="10.00" fill="#000000">sample: test2</text>
</g>
<!-- 24&#45;&gt;23 -->
<g id="edge27" class="edge">
<title>24&#45;&gt;23</title>
<path fill="none" stroke="#c0c0c0" stroke-width="2" d="M159.5,-791.8314C159.5,-784.131 159.5,-774.9743 159.5,-766.4166"/>
<polygon fill="#c0c0c0" stroke="#c0c0c0" stroke-width="2" points="163.0001,-766.4132 159.5,-756.4133 156.0001,-766.4133 163.0001,-766.4132"/>
</g>
</g>
</svg>
