<?xml version="1.0" encoding="UTF-8" standalone="no"?>
<!DOCTYPE svg PUBLIC "-//W3C//DTD SVG 1.1//EN"
 "http://www.w3.org/Graphics/SVG/1.1/DTD/svg11.dtd">
<!-- Generated by graphviz version 2.40.1 (0)
 -->
<!-- Title: snakemake_dag Pages: 1 -->
<svg width="509pt" height="836pt"
 viewBox="0.00 0.00 509.00 836.00" xmlns="http://www.w3.org/2000/svg" xmlns:xlink="http://www.w3.org/1999/xlink">
<g id="graph0" class="graph" transform="scale(1 1) rotate(0) translate(4 832)">
<title>snakemake_dag</title>
<polygon fill="#ffffff" stroke="transparent" points="-4,4 -4,-832 505,-832 505,4 -4,4"/>
<!-- 0 -->
<g id="node1" class="node">
<title>0</title>
<path fill="none" stroke="#d89556" stroke-width="2" stroke-dasharray="5,2" d="M274,-36C274,-36 211,-36 211,-36 205,-36 199,-30 199,-24 199,-24 199,-12 199,-12 199,-6 205,0 211,0 211,0 274,0 274,0 280,0 286,-6 286,-12 286,-12 286,-24 286,-24 286,-30 280,-36 274,-36"/>
<text text-anchor="middle" x="242.5" y="-15.5" font-family="sans" font-size="10.00" fill="#000000">evaluate_calls</text>
</g>
<!-- 1 -->
<g id="node2" class="node">
<title>1</title>
<path fill="none" stroke="#78d856" stroke-width="2" stroke-dasharray="5,2" d="M266,-108C266,-108 219,-108 219,-108 213,-108 207,-102 207,-96 207,-96 207,-84 207,-84 207,-78 213,-72 219,-72 219,-72 266,-72 266,-72 272,-72 278,-78 278,-84 278,-84 278,-96 278,-96 278,-102 272,-108 266,-108"/>
<text text-anchor="middle" x="242.5" y="-87.5" font-family="sans" font-size="10.00" fill="#000000">m6A_caller</text>
</g>
<!-- 1&#45;&gt;0 -->
<g id="edge1" class="edge">
<title>1&#45;&gt;0</title>
<path fill="none" stroke="#c0c0c0" stroke-width="2" d="M242.5,-71.8314C242.5,-64.131 242.5,-54.9743 242.5,-46.4166"/>
<polygon fill="#c0c0c0" stroke="#c0c0c0" stroke-width="2" points="246.0001,-46.4132 242.5,-36.4133 239.0001,-46.4133 246.0001,-46.4132"/>
</g>
<!-- 2 -->
<g id="node3" class="node">
<title>2</title>
<path fill="none" stroke="#d6d856" stroke-width="2" stroke-dasharray="5,2" d="M273,-180C273,-180 212,-180 212,-180 206,-180 200,-174 200,-168 200,-168 200,-156 200,-156 200,-150 206,-144 212,-144 212,-144 273,-144 273,-144 279,-144 285,-150 285,-156 285,-156 285,-168 285,-168 285,-174 279,-180 273,-180"/>
<text text-anchor="middle" x="242.5" y="-159.5" font-family="sans" font-size="10.00" fill="#000000">sample_sheet</text>
</g>
<!-- 2&#45;&gt;1 -->
<g id="edge2" class="edge">
<title>2&#45;&gt;1</title>
<path fill="none" stroke="#c0c0c0" stroke-width="2" d="M242.5,-143.8314C242.5,-136.131 242.5,-126.9743 242.5,-118.4166"/>
<polygon fill="#c0c0c0" stroke="#c0c0c0" stroke-width="2" points="246.0001,-118.4132 242.5,-108.4133 239.0001,-118.4133 246.0001,-118.4132"/>
</g>
<!-- 3 -->
<g id="node4" class="node">
<title>3</title>
<path fill="none" stroke="#97d856" stroke-width="2" stroke-dasharray="5,2" d="M221.5,-252C221.5,-252 159.5,-252 159.5,-252 153.5,-252 147.5,-246 147.5,-240 147.5,-240 147.5,-228 147.5,-228 147.5,-222 153.5,-216 159.5,-216 159.5,-216 221.5,-216 221.5,-216 227.5,-216 233.5,-222 233.5,-228 233.5,-228 233.5,-240 233.5,-240 233.5,-246 227.5,-252 221.5,-252"/>
<text text-anchor="middle" x="190.5" y="-231.5" font-family="sans" font-size="10.00" fill="#000000">format_output</text>
</g>
<!-- 3&#45;&gt;2 -->
<g id="edge3" class="edge">
<title>3&#45;&gt;2</title>
<path fill="none" stroke="#c0c0c0" stroke-width="2" d="M203.6218,-215.8314C209.5499,-207.6232 216.6729,-197.7606 223.1933,-188.7323"/>
<polygon fill="#c0c0c0" stroke="#c0c0c0" stroke-width="2" points="226.184,-190.5693 229.2015,-180.4133 220.5092,-186.4708 226.184,-190.5693"/>
</g>
<!-- 4 -->
<g id="node5" class="node">
<title>4</title>
<path fill="none" stroke="#56d8d8" stroke-width="2" stroke-dasharray="5,2" d="M114.5,-324C114.5,-324 84.5,-324 84.5,-324 78.5,-324 72.5,-318 72.5,-312 72.5,-312 72.5,-300 72.5,-300 72.5,-294 78.5,-288 84.5,-288 84.5,-288 114.5,-288 114.5,-288 120.5,-288 126.5,-294 126.5,-300 126.5,-300 126.5,-312 126.5,-312 126.5,-318 120.5,-324 114.5,-324"/>
<text text-anchor="middle" x="99.5" y="-303.5" font-family="sans" font-size="10.00" fill="#000000">pileup</text>
</g>
<!-- 4&#45;&gt;3 -->
<g id="edge5" class="edge">
<title>4&#45;&gt;3</title>
<path fill="none" stroke="#c0c0c0" stroke-width="2" d="M122.4631,-287.8314C133.6715,-278.9632 147.3209,-268.1637 159.4439,-258.5718"/>
<polygon fill="#c0c0c0" stroke="#c0c0c0" stroke-width="2" points="161.8737,-261.1125 167.5442,-252.1628 157.5303,-255.6229 161.8737,-261.1125"/>
</g>
<!-- 5 -->
<g id="node6" class="node">
<title>5</title>
<path fill="none" stroke="#56d8b9" stroke-width="2" stroke-dasharray="5,2" d="M159,-396C159,-396 12,-396 12,-396 6,-396 0,-390 0,-384 0,-384 0,-372 0,-372 0,-366 6,-360 12,-360 12,-360 159,-360 159,-360 165,-360 171,-366 171,-372 171,-372 171,-384 171,-384 171,-390 165,-396 159,-396"/>
<text text-anchor="middle" x="85.5" y="-375.5" font-family="sans" font-size="10.00" fill="#000000">samtools_sort_index_dedupped</text>
</g>
<!-- 5&#45;&gt;4 -->
<g id="edge7" class="edge">
<title>5&#45;&gt;4</title>
<path fill="none" stroke="#c0c0c0" stroke-width="2" d="M89.0328,-359.8314C90.5301,-352.131 92.3105,-342.9743 93.9745,-334.4166"/>
<polygon fill="#c0c0c0" stroke="#c0c0c0" stroke-width="2" points="97.4465,-334.8975 95.9196,-324.4133 90.5752,-333.5614 97.4465,-334.8975"/>
</g>
<!-- 6 -->
<g id="node7" class="node">
<title>6</title>
<path fill="none" stroke="#d85656" stroke-width="2" stroke-dasharray="5,2" d="M121,-468C121,-468 50,-468 50,-468 44,-468 38,-462 38,-456 38,-456 38,-444 38,-444 38,-438 44,-432 50,-432 50,-432 121,-432 121,-432 127,-432 133,-438 133,-444 133,-444 133,-456 133,-456 133,-462 127,-468 121,-468"/>
<text text-anchor="middle" x="85.5" y="-447.5" font-family="sans" font-size="10.00" fill="#000000">umitools_dedup</text>
</g>
<!-- 6&#45;&gt;5 -->
<g id="edge8" class="edge">
<title>6&#45;&gt;5</title>
<path fill="none" stroke="#c0c0c0" stroke-width="2" d="M85.5,-431.8314C85.5,-424.131 85.5,-414.9743 85.5,-406.4166"/>
<polygon fill="#c0c0c0" stroke="#c0c0c0" stroke-width="2" points="89.0001,-406.4132 85.5,-396.4133 82.0001,-406.4133 89.0001,-406.4132"/>
</g>
<!-- 7 -->
<g id="node8" class="node">
<title>7</title>
<path fill="none" stroke="#569ad8" stroke-width="2" stroke-dasharray="5,2" d="M132.5,-540C132.5,-540 38.5,-540 38.5,-540 32.5,-540 26.5,-534 26.5,-528 26.5,-528 26.5,-516 26.5,-516 26.5,-510 32.5,-504 38.5,-504 38.5,-504 132.5,-504 132.5,-504 138.5,-504 144.5,-510 144.5,-516 144.5,-516 144.5,-528 144.5,-528 144.5,-534 138.5,-540 132.5,-540"/>
<text text-anchor="middle" x="85.5" y="-519.5" font-family="sans" font-size="10.00" fill="#000000">samtools_sort_index</text>
</g>
<!-- 7&#45;&gt;6 -->
<g id="edge9" class="edge">
<title>7&#45;&gt;6</title>
<path fill="none" stroke="#c0c0c0" stroke-width="2" d="M85.5,-503.8314C85.5,-496.131 85.5,-486.9743 85.5,-478.4166"/>
<polygon fill="#c0c0c0" stroke="#c0c0c0" stroke-width="2" points="89.0001,-478.4132 85.5,-468.4133 82.0001,-478.4133 89.0001,-478.4132"/>
</g>
<!-- 8 -->
<g id="node9" class="node">
<title>8</title>
<path fill="none" stroke="#567bd8" stroke-width="2" stroke-dasharray="5,2" d="M121,-612C121,-612 50,-612 50,-612 44,-612 38,-606 38,-600 38,-600 38,-588 38,-588 38,-582 44,-576 50,-576 50,-576 121,-576 121,-576 127,-576 133,-582 133,-588 133,-588 133,-600 133,-600 133,-606 127,-612 121,-612"/>
<text text-anchor="middle" x="85.5" y="-591.5" font-family="sans" font-size="10.00" fill="#000000">hisat2_mapping</text>
</g>
<!-- 8&#45;&gt;7 -->
<g id="edge10" class="edge">
<title>8&#45;&gt;7</title>
<path fill="none" stroke="#c0c0c0" stroke-width="2" d="M85.5,-575.8314C85.5,-568.131 85.5,-558.9743 85.5,-550.4166"/>
<polygon fill="#c0c0c0" stroke="#c0c0c0" stroke-width="2" points="89.0001,-550.4132 85.5,-540.4133 82.0001,-550.4133 89.0001,-550.4132"/>
</g>
<!-- 9 -->
<g id="node10" class="node">
<title>9</title>
<path fill="none" stroke="#56b9d8" stroke-width="2" stroke-dasharray="5,2" d="M111.5,-684C111.5,-684 59.5,-684 59.5,-684 53.5,-684 47.5,-678 47.5,-672 47.5,-672 47.5,-660 47.5,-660 47.5,-654 53.5,-648 59.5,-648 59.5,-648 111.5,-648 111.5,-648 117.5,-648 123.5,-654 123.5,-660 123.5,-660 123.5,-672 123.5,-672 123.5,-678 117.5,-684 111.5,-684"/>
<text text-anchor="middle" x="85.5" y="-663.5" font-family="sans" font-size="10.00" fill="#000000">decompress</text>
</g>
<!-- 9&#45;&gt;8 -->
<g id="edge11" class="edge">
<title>9&#45;&gt;8</title>
<path fill="none" stroke="#c0c0c0" stroke-width="2" d="M85.5,-647.8314C85.5,-640.131 85.5,-630.9743 85.5,-622.4166"/>
<polygon fill="#c0c0c0" stroke="#c0c0c0" stroke-width="2" points="89.0001,-622.4132 85.5,-612.4133 82.0001,-622.4133 89.0001,-622.4132"/>
</g>
<!-- 10 -->
<g id="node11" class="node">
<title>10</title>
<path fill="none" stroke="#d87556" stroke-width="2" stroke-dasharray="5,2" d="M103,-756C103,-756 68,-756 68,-756 62,-756 56,-750 56,-744 56,-744 56,-732 56,-732 56,-726 62,-720 68,-720 68,-720 103,-720 103,-720 109,-720 115,-726 115,-732 115,-732 115,-744 115,-744 115,-750 109,-756 103,-756"/>
<text text-anchor="middle" x="85.5" y="-735.5" font-family="sans" font-size="10.00" fill="#000000">cutadapt</text>
</g>
<!-- 10&#45;&gt;9 -->
<g id="edge12" class="edge">
<title>10&#45;&gt;9</title>
<path fill="none" stroke="#c0c0c0" stroke-width="2" d="M85.5,-719.8314C85.5,-712.131 85.5,-702.9743 85.5,-694.4166"/>
<polygon fill="#c0c0c0" stroke="#c0c0c0" stroke-width="2" points="89.0001,-694.4132 85.5,-684.4133 82.0001,-694.4133 89.0001,-694.4132"/>
</g>
<!-- 11 -->
<g id="node12" class="node">
<title>11</title>
<path fill="none" stroke="#56d89a" stroke-width="2" stroke-dasharray="5,2" d="M123,-828C123,-828 48,-828 48,-828 42,-828 36,-822 36,-816 36,-816 36,-804 36,-804 36,-798 42,-792 48,-792 48,-792 123,-792 123,-792 129,-792 135,-798 135,-804 135,-804 135,-816 135,-816 135,-822 129,-828 123,-828"/>
<text text-anchor="middle" x="85.5" y="-813" font-family="sans" font-size="10.00" fill="#000000">umitools_extract</text>
<text text-anchor="middle" x="85.5" y="-802" font-family="sans" font-size="10.00" fill="#000000">sample: test1</text>
</g>
<!-- 11&#45;&gt;10 -->
<g id="edge13" class="edge">
<title>11&#45;&gt;10</title>
<path fill="none" stroke="#c0c0c0" stroke-width="2" d="M85.5,-791.8314C85.5,-784.131 85.5,-774.9743 85.5,-766.4166"/>
<polygon fill="#c0c0c0" stroke="#c0c0c0" stroke-width="2" points="89.0001,-766.4132 85.5,-756.4133 82.0001,-766.4133 89.0001,-766.4132"/>
</g>
<!-- 12 -->
<g id="node13" class="node">
<title>12</title>
<path fill="none" stroke="#56d87b" stroke-width="2" stroke-dasharray="5,2" d="M325,-324C325,-324 160,-324 160,-324 154,-324 148,-318 148,-312 148,-312 148,-300 148,-300 148,-294 154,-288 160,-288 160,-288 325,-288 325,-288 331,-288 337,-294 337,-300 337,-300 337,-312 337,-312 337,-318 331,-324 325,-324"/>
<text text-anchor="middle" x="242.5" y="-303.5" font-family="sans" font-size="10.00" fill="#000000">anno_to_base_remove_redundance</text>
</g>
<!-- 12&#45;&gt;3 -->
<g id="edge6" class="edge">
<title>12&#45;&gt;3</title>
<path fill="none" stroke="#c0c0c0" stroke-width="2" d="M229.3782,-287.8314C223.4501,-279.6232 216.3271,-269.7606 209.8067,-260.7323"/>
<polygon fill="#c0c0c0" stroke="#c0c0c0" stroke-width="2" points="212.4908,-258.4708 203.7985,-252.4133 206.816,-262.5693 212.4908,-258.4708"/>
</g>
<!-- 15 -->
<g id="node16" class="node">
<title>15</title>
<path fill="none" stroke="#97d856" stroke-width="2" stroke-dasharray="5,2" d="M325.5,-252C325.5,-252 263.5,-252 263.5,-252 257.5,-252 251.5,-246 251.5,-240 251.5,-240 251.5,-228 251.5,-228 251.5,-222 257.5,-216 263.5,-216 263.5,-216 325.5,-216 325.5,-216 331.5,-216 337.5,-222 337.5,-228 337.5,-228 337.5,-240 337.5,-240 337.5,-246 331.5,-252 325.5,-252"/>
<text text-anchor="middle" x="294.5" y="-231.5" font-family="sans" font-size="10.00" fill="#000000">format_output</text>
</g>
<!-- 12&#45;&gt;15 -->
<g id="edge18" class="edge">
<title>12&#45;&gt;15</title>
<path fill="none" stroke="#c0c0c0" stroke-width="2" d="M255.6218,-287.8314C261.5499,-279.6232 268.6729,-269.7606 275.1933,-260.7323"/>
<polygon fill="#c0c0c0" stroke="#c0c0c0" stroke-width="2" points="278.184,-262.5693 281.2015,-252.4133 272.5092,-258.4708 278.184,-262.5693"/>
</g>
<!-- 13 -->
<g id="node14" class="node">
<title>13</title>
<path fill="none" stroke="#59d856" stroke-width="2" stroke-dasharray="5,2" d="M261.5,-396C261.5,-396 201.5,-396 201.5,-396 195.5,-396 189.5,-390 189.5,-384 189.5,-384 189.5,-372 189.5,-372 189.5,-366 195.5,-360 201.5,-360 201.5,-360 261.5,-360 261.5,-360 267.5,-360 273.5,-366 273.5,-372 273.5,-372 273.5,-384 273.5,-384 273.5,-390 267.5,-396 261.5,-396"/>
<text text-anchor="middle" x="231.5" y="-375.5" font-family="sans" font-size="10.00" fill="#000000">anno_to_base</text>
</g>
<!-- 13&#45;&gt;12 -->
<g id="edge14" class="edge">
<title>13&#45;&gt;12</title>
<path fill="none" stroke="#c0c0c0" stroke-width="2" d="M234.2758,-359.8314C235.4522,-352.131 236.8511,-342.9743 238.1586,-334.4166"/>
<polygon fill="#c0c0c0" stroke="#c0c0c0" stroke-width="2" points="241.6364,-334.8272 239.6869,-324.4133 234.7167,-333.7699 241.6364,-334.8272"/>
</g>
<!-- 14 -->
<g id="node15" class="node">
<title>14</title>
<path fill="none" stroke="#b6d856" stroke-width="2" stroke-dasharray="5,2" d="M284.5,-468C284.5,-468 248.5,-468 248.5,-468 242.5,-468 236.5,-462 236.5,-456 236.5,-456 236.5,-444 236.5,-444 236.5,-438 242.5,-432 248.5,-432 248.5,-432 284.5,-432 284.5,-432 290.5,-432 296.5,-438 296.5,-444 296.5,-444 296.5,-456 296.5,-456 296.5,-462 290.5,-468 284.5,-468"/>
<text text-anchor="middle" x="266.5" y="-447.5" font-family="sans" font-size="10.00" fill="#000000">gtf2anno</text>
</g>
<!-- 14&#45;&gt;12 -->
<g id="edge15" class="edge">
<title>14&#45;&gt;12</title>
<path fill="none" stroke="#c0c0c0" stroke-width="2" d="M274.9197,-431.696C282.2184,-413.2408 290.4579,-384.1127 282.5,-360 279.2092,-350.0288 273.2884,-340.3944 266.9936,-332.0924"/>
<polygon fill="#c0c0c0" stroke="#c0c0c0" stroke-width="2" points="269.672,-329.8384 260.6576,-324.2714 264.2328,-334.2448 269.672,-329.8384"/>
</g>
<!-- 14&#45;&gt;13 -->
<g id="edge16" class="edge">
<title>14&#45;&gt;13</title>
<path fill="none" stroke="#c0c0c0" stroke-width="2" d="M257.668,-431.8314C253.8014,-423.8771 249.1794,-414.369 244.9032,-405.5723"/>
<polygon fill="#c0c0c0" stroke="#c0c0c0" stroke-width="2" points="247.9707,-403.8768 240.4509,-396.4133 241.6751,-406.9371 247.9707,-403.8768"/>
</g>
<!-- 15&#45;&gt;2 -->
<g id="edge4" class="edge">
<title>15&#45;&gt;2</title>
<path fill="none" stroke="#c0c0c0" stroke-width="2" d="M281.3782,-215.8314C275.4501,-207.6232 268.3271,-197.7606 261.8067,-188.7323"/>
<polygon fill="#c0c0c0" stroke="#c0c0c0" stroke-width="2" points="264.4908,-186.4708 255.7985,-180.4133 258.816,-190.5693 264.4908,-186.4708"/>
</g>
<!-- 16 -->
<g id="node17" class="node">
<title>16</title>
<path fill="none" stroke="#56d8d8" stroke-width="2" stroke-dasharray="5,2" d="M419.5,-324C419.5,-324 389.5,-324 389.5,-324 383.5,-324 377.5,-318 377.5,-312 377.5,-312 377.5,-300 377.5,-300 377.5,-294 383.5,-288 389.5,-288 389.5,-288 419.5,-288 419.5,-288 425.5,-288 431.5,-294 431.5,-300 431.5,-300 431.5,-312 431.5,-312 431.5,-318 425.5,-324 419.5,-324"/>
<text text-anchor="middle" x="404.5" y="-303.5" font-family="sans" font-size="10.00" fill="#000000">pileup</text>
</g>
<!-- 16&#45;&gt;15 -->
<g id="edge17" class="edge">
<title>16&#45;&gt;15</title>
<path fill="none" stroke="#c0c0c0" stroke-width="2" d="M377.309,-288.2022C363.2685,-279.0121 345.947,-267.6744 330.7813,-257.7478"/>
<polygon fill="#c0c0c0" stroke="#c0c0c0" stroke-width="2" points="332.4261,-254.6413 322.1423,-252.0931 328.5925,-260.4982 332.4261,-254.6413"/>
</g>
<!-- 17 -->
<g id="node18" class="node">
<title>17</title>
<path fill="none" stroke="#56d8b9" stroke-width="2" stroke-dasharray="5,2" d="M489,-396C489,-396 342,-396 342,-396 336,-396 330,-390 330,-384 330,-384 330,-372 330,-372 330,-366 336,-360 342,-360 342,-360 489,-360 489,-360 495,-360 501,-366 501,-372 501,-372 501,-384 501,-384 501,-390 495,-396 489,-396"/>
<text text-anchor="middle" x="415.5" y="-375.5" font-family="sans" font-size="10.00" fill="#000000">samtools_sort_index_dedupped</text>
</g>
<!-- 17&#45;&gt;16 -->
<g id="edge19" class="edge">
<title>17&#45;&gt;16</title>
<path fill="none" stroke="#c0c0c0" stroke-width="2" d="M412.7242,-359.8314C411.5478,-352.131 410.1489,-342.9743 408.8414,-334.4166"/>
<polygon fill="#c0c0c0" stroke="#c0c0c0" stroke-width="2" points="412.2833,-333.7699 407.3131,-324.4133 405.3636,-334.8272 412.2833,-333.7699"/>
</g>
<!-- 18 -->
<g id="node19" class="node">
<title>18</title>
<path fill="none" stroke="#d85656" stroke-width="2" stroke-dasharray="5,2" d="M451,-468C451,-468 380,-468 380,-468 374,-468 368,-462 368,-456 368,-456 368,-444 368,-444 368,-438 374,-432 380,-432 380,-432 451,-432 451,-432 457,-432 463,-438 463,-444 463,-444 463,-456 463,-456 463,-462 457,-468 451,-468"/>
<text text-anchor="middle" x="415.5" y="-447.5" font-family="sans" font-size="10.00" fill="#000000">umitools_dedup</text>
</g>
<!-- 18&#45;&gt;17 -->
<g id="edge20" class="edge">
<title>18&#45;&gt;17</title>
<path fill="none" stroke="#c0c0c0" stroke-width="2" d="M415.5,-431.8314C415.5,-424.131 415.5,-414.9743 415.5,-406.4166"/>
<polygon fill="#c0c0c0" stroke="#c0c0c0" stroke-width="2" points="419.0001,-406.4132 415.5,-396.4133 412.0001,-406.4133 419.0001,-406.4132"/>
</g>
<!-- 19 -->
<g id="node20" class="node">
<title>19</title>
<path fill="none" stroke="#569ad8" stroke-width="2" stroke-dasharray="5,2" d="M462.5,-540C462.5,-540 368.5,-540 368.5,-540 362.5,-540 356.5,-534 356.5,-528 356.5,-528 356.5,-516 356.5,-516 356.5,-510 362.5,-504 368.5,-504 368.5,-504 462.5,-504 462.5,-504 468.5,-504 474.5,-510 474.5,-516 474.5,-516 474.5,-528 474.5,-528 474.5,-534 468.5,-540 462.5,-540"/>
<text text-anchor="middle" x="415.5" y="-519.5" font-family="sans" font-size="10.00" fill="#000000">samtools_sort_index</text>
</g>
<!-- 19&#45;&gt;18 -->
<g id="edge21" class="edge">
<title>19&#45;&gt;18</title>
<path fill="none" stroke="#c0c0c0" stroke-width="2" d="M415.5,-503.8314C415.5,-496.131 415.5,-486.9743 415.5,-478.4166"/>
<polygon fill="#c0c0c0" stroke="#c0c0c0" stroke-width="2" points="419.0001,-478.4132 415.5,-468.4133 412.0001,-478.4133 419.0001,-478.4132"/>
</g>
<!-- 20 -->
<g id="node21" class="node">
<title>20</title>
<path fill="none" stroke="#567bd8" stroke-width="2" stroke-dasharray="5,2" d="M451,-612C451,-612 380,-612 380,-612 374,-612 368,-606 368,-600 368,-600 368,-588 368,-588 368,-582 374,-576 380,-576 380,-576 451,-576 451,-576 457,-576 463,-582 463,-588 463,-588 463,-600 463,-600 463,-606 457,-612 451,-612"/>
<text text-anchor="middle" x="415.5" y="-591.5" font-family="sans" font-size="10.00" fill="#000000">hisat2_mapping</text>
</g>
<!-- 20&#45;&gt;19 -->
<g id="edge22" class="edge">
<title>20&#45;&gt;19</title>
<path fill="none" stroke="#c0c0c0" stroke-width="2" d="M415.5,-575.8314C415.5,-568.131 415.5,-558.9743 415.5,-550.4166"/>
<polygon fill="#c0c0c0" stroke="#c0c0c0" stroke-width="2" points="419.0001,-550.4132 415.5,-540.4133 412.0001,-550.4133 419.0001,-550.4132"/>
</g>
<!-- 21 -->
<g id="node22" class="node">
<title>21</title>
<path fill="none" stroke="#56b9d8" stroke-width="2" stroke-dasharray="5,2" d="M441.5,-684C441.5,-684 389.5,-684 389.5,-684 383.5,-684 377.5,-678 377.5,-672 377.5,-672 377.5,-660 377.5,-660 377.5,-654 383.5,-648 389.5,-648 389.5,-648 441.5,-648 441.5,-648 447.5,-648 453.5,-654 453.5,-660 453.5,-660 453.5,-672 453.5,-672 453.5,-678 447.5,-684 441.5,-684"/>
<text text-anchor="middle" x="415.5" y="-663.5" font-family="sans" font-size="10.00" fill="#000000">decompress</text>
</g>
<!-- 21&#45;&gt;20 -->
<g id="edge23" class="edge">
<title>21&#45;&gt;20</title>
<path fill="none" stroke="#c0c0c0" stroke-width="2" d="M415.5,-647.8314C415.5,-640.131 415.5,-630.9743 415.5,-622.4166"/>
<polygon fill="#c0c0c0" stroke="#c0c0c0" stroke-width="2" points="419.0001,-622.4132 415.5,-612.4133 412.0001,-622.4133 419.0001,-622.4132"/>
</g>
<!-- 22 -->
<g id="node23" class="node">
<title>22</title>
<path fill="none" stroke="#d87556" stroke-width="2" stroke-dasharray="5,2" d="M433,-756C433,-756 398,-756 398,-756 392,-756 386,-750 386,-744 386,-744 386,-732 386,-732 386,-726 392,-720 398,-720 398,-720 433,-720 433,-720 439,-720 445,-726 445,-732 445,-732 445,-744 445,-744 445,-750 439,-756 433,-756"/>
<text text-anchor="middle" x="415.5" y="-735.5" font-family="sans" font-size="10.00" fill="#000000">cutadapt</text>
</g>
<!-- 22&#45;&gt;21 -->
<g id="edge24" class="edge">
<title>22&#45;&gt;21</title>
<path fill="none" stroke="#c0c0c0" stroke-width="2" d="M415.5,-719.8314C415.5,-712.131 415.5,-702.9743 415.5,-694.4166"/>
<polygon fill="#c0c0c0" stroke="#c0c0c0" stroke-width="2" points="419.0001,-694.4132 415.5,-684.4133 412.0001,-694.4133 419.0001,-694.4132"/>
</g>
<!-- 23 -->
<g id="node24" class="node">
<title>23</title>
<path fill="none" stroke="#56d89a" stroke-width="2" stroke-dasharray="5,2" d="M453,-828C453,-828 378,-828 378,-828 372,-828 366,-822 366,-816 366,-816 366,-804 366,-804 366,-798 372,-792 378,-792 378,-792 453,-792 453,-792 459,-792 465,-798 465,-804 465,-804 465,-816 465,-816 465,-822 459,-828 453,-828"/>
<text text-anchor="middle" x="415.5" y="-813" font-family="sans" font-size="10.00" fill="#000000">umitools_extract</text>
<text text-anchor="middle" x="415.5" y="-802" font-family="sans" font-size="10.00" fill="#000000">sample: test2</text>
</g>
<!-- 23&#45;&gt;22 -->
<g id="edge25" class="edge">
<title>23&#45;&gt;22</title>
<path fill="none" stroke="#c0c0c0" stroke-width="2" d="M415.5,-791.8314C415.5,-784.131 415.5,-774.9743 415.5,-766.4166"/>
<polygon fill="#c0c0c0" stroke="#c0c0c0" stroke-width="2" points="419.0001,-766.4132 415.5,-756.4133 412.0001,-766.4133 419.0001,-766.4132"/>
</g>
</g>
</svg>
