<?xml version="1.0" encoding="UTF-8" standalone="no"?>
<!DOCTYPE svg PUBLIC "-//W3C//DTD SVG 1.1//EN"
 "http://www.w3.org/Graphics/SVG/1.1/DTD/svg11.dtd">
<!-- Generated by graphviz version 2.40.1 (0)
 -->
<!-- Title: snakemake_dag Pages: 1 -->
<svg width="542pt" height="836pt"
 viewBox="0.00 0.00 542.00 836.00" xmlns="http://www.w3.org/2000/svg" xmlns:xlink="http://www.w3.org/1999/xlink">
<g id="graph0" class="graph" transform="scale(1 1) rotate(0) translate(4 832)">
<title>snakemake_dag</title>
<polygon fill="#ffffff" stroke="transparent" points="-4,4 -4,-832 538,-832 538,4 -4,4"/>
<!-- 0 -->
<g id="node1" class="node">
<title>0</title>
<path fill="none" stroke="#d8ac56" stroke-width="2" d="M305.5,-36C305.5,-36 242.5,-36 242.5,-36 236.5,-36 230.5,-30 230.5,-24 230.5,-24 230.5,-12 230.5,-12 230.5,-6 236.5,0 242.5,0 242.5,0 305.5,0 305.5,0 311.5,0 317.5,-6 317.5,-12 317.5,-12 317.5,-24 317.5,-24 317.5,-30 311.5,-36 305.5,-36"/>
<text text-anchor="middle" x="274" y="-15.5" font-family="sans" font-size="10.00" fill="#000000">evaluate_calls</text>
</g>
<!-- 1 -->
<g id="node2" class="node">
<title>1</title>
<path fill="none" stroke="#ced856" stroke-width="2" d="M297.5,-108C297.5,-108 250.5,-108 250.5,-108 244.5,-108 238.5,-102 238.5,-96 238.5,-96 238.5,-84 238.5,-84 238.5,-78 244.5,-72 250.5,-72 250.5,-72 297.5,-72 297.5,-72 303.5,-72 309.5,-78 309.5,-84 309.5,-84 309.5,-96 309.5,-96 309.5,-102 303.5,-108 297.5,-108"/>
<text text-anchor="middle" x="274" y="-87.5" font-family="sans" font-size="10.00" fill="#000000">m6A_caller</text>
</g>
<!-- 1&#45;&gt;0 -->
<g id="edge1" class="edge">
<title>1&#45;&gt;0</title>
<path fill="none" stroke="#c0c0c0" stroke-width="2" d="M274,-71.8314C274,-64.131 274,-54.9743 274,-46.4166"/>
<polygon fill="#c0c0c0" stroke="#c0c0c0" stroke-width="2" points="277.5001,-46.4132 274,-36.4133 270.5001,-46.4133 277.5001,-46.4132"/>
</g>
<!-- 2 -->
<g id="node3" class="node">
<title>2</title>
<path fill="none" stroke="#568ad8" stroke-width="2" d="M304.5,-180C304.5,-180 243.5,-180 243.5,-180 237.5,-180 231.5,-174 231.5,-168 231.5,-168 231.5,-156 231.5,-156 231.5,-150 237.5,-144 243.5,-144 243.5,-144 304.5,-144 304.5,-144 310.5,-144 316.5,-150 316.5,-156 316.5,-156 316.5,-168 316.5,-168 316.5,-174 310.5,-180 304.5,-180"/>
<text text-anchor="middle" x="274" y="-159.5" font-family="sans" font-size="10.00" fill="#000000">sample_sheet</text>
</g>
<!-- 2&#45;&gt;1 -->
<g id="edge2" class="edge">
<title>2&#45;&gt;1</title>
<path fill="none" stroke="#c0c0c0" stroke-width="2" d="M274,-143.8314C274,-136.131 274,-126.9743 274,-118.4166"/>
<polygon fill="#c0c0c0" stroke="#c0c0c0" stroke-width="2" points="277.5001,-118.4132 274,-108.4133 270.5001,-118.4133 277.5001,-118.4132"/>
</g>
<!-- 3 -->
<g id="node4" class="node">
<title>3</title>
<path fill="none" stroke="#56c1d8" stroke-width="2" d="M357,-252C357,-252 295,-252 295,-252 289,-252 283,-246 283,-240 283,-240 283,-228 283,-228 283,-222 289,-216 295,-216 295,-216 357,-216 357,-216 363,-216 369,-222 369,-228 369,-228 369,-240 369,-240 369,-246 363,-252 357,-252"/>
<text text-anchor="middle" x="326" y="-231.5" font-family="sans" font-size="10.00" fill="#000000">format_output</text>
</g>
<!-- 3&#45;&gt;2 -->
<g id="edge3" class="edge">
<title>3&#45;&gt;2</title>
<path fill="none" stroke="#c0c0c0" stroke-width="2" d="M312.8782,-215.8314C306.9501,-207.6232 299.8271,-197.7606 293.3067,-188.7323"/>
<polygon fill="#c0c0c0" stroke="#c0c0c0" stroke-width="2" points="295.9908,-186.4708 287.2985,-180.4133 290.316,-190.5693 295.9908,-186.4708"/>
</g>
<!-- 4 -->
<g id="node5" class="node">
<title>4</title>
<path fill="none" stroke="#56d863" stroke-width="2" d="M451,-324C451,-324 421,-324 421,-324 415,-324 409,-318 409,-312 409,-312 409,-300 409,-300 409,-294 415,-288 421,-288 421,-288 451,-288 451,-288 457,-288 463,-294 463,-300 463,-300 463,-312 463,-312 463,-318 457,-324 451,-324"/>
<text text-anchor="middle" x="436" y="-303.5" font-family="sans" font-size="10.00" fill="#000000">pileup</text>
</g>
<!-- 4&#45;&gt;3 -->
<g id="edge5" class="edge">
<title>4&#45;&gt;3</title>
<path fill="none" stroke="#c0c0c0" stroke-width="2" d="M408.809,-288.2022C394.7685,-279.0121 377.447,-267.6744 362.2813,-257.7478"/>
<polygon fill="#c0c0c0" stroke="#c0c0c0" stroke-width="2" points="363.9261,-254.6413 353.6423,-252.0931 360.0925,-260.4982 363.9261,-254.6413"/>
</g>
<!-- 5 -->
<g id="node6" class="node">
<title>5</title>
<path fill="none" stroke="#d88d56" stroke-width="2" d="M520.5,-396C520.5,-396 373.5,-396 373.5,-396 367.5,-396 361.5,-390 361.5,-384 361.5,-384 361.5,-372 361.5,-372 361.5,-366 367.5,-360 373.5,-360 373.5,-360 520.5,-360 520.5,-360 526.5,-360 532.5,-366 532.5,-372 532.5,-372 532.5,-384 532.5,-384 532.5,-390 526.5,-396 520.5,-396"/>
<text text-anchor="middle" x="447" y="-375.5" font-family="sans" font-size="10.00" fill="#000000">samtools_sort_index_dedupped</text>
</g>
<!-- 5&#45;&gt;4 -->
<g id="edge7" class="edge">
<title>5&#45;&gt;4</title>
<path fill="none" stroke="#c0c0c0" stroke-width="2" d="M444.2242,-359.8314C443.0478,-352.131 441.6489,-342.9743 440.3414,-334.4166"/>
<polygon fill="#c0c0c0" stroke="#c0c0c0" stroke-width="2" points="443.7833,-333.7699 438.8131,-324.4133 436.8636,-334.8272 443.7833,-333.7699"/>
</g>
<!-- 6 -->
<g id="node7" class="node">
<title>6</title>
<path fill="none" stroke="#d85656" stroke-width="2" d="M448.5,-468C448.5,-468 377.5,-468 377.5,-468 371.5,-468 365.5,-462 365.5,-456 365.5,-456 365.5,-444 365.5,-444 365.5,-438 371.5,-432 377.5,-432 377.5,-432 448.5,-432 448.5,-432 454.5,-432 460.5,-438 460.5,-444 460.5,-444 460.5,-456 460.5,-456 460.5,-462 454.5,-468 448.5,-468"/>
<text text-anchor="middle" x="413" y="-447.5" font-family="sans" font-size="10.00" fill="#000000">umitools_dedup</text>
</g>
<!-- 6&#45;&gt;5 -->
<g id="edge8" class="edge">
<title>6&#45;&gt;5</title>
<path fill="none" stroke="#c0c0c0" stroke-width="2" d="M421.5796,-431.8314C425.3358,-423.8771 429.8257,-414.369 433.9798,-405.5723"/>
<polygon fill="#c0c0c0" stroke="#c0c0c0" stroke-width="2" points="437.1996,-406.9503 438.3048,-396.4133 430.8699,-403.9612 437.1996,-406.9503"/>
</g>
<!-- 7 -->
<g id="node8" class="node">
<title>7</title>
<path fill="none" stroke="#56a9d8" stroke-width="2" stroke-dasharray="5,2" d="M295.5,-684C295.5,-684 240.5,-684 240.5,-684 234.5,-684 228.5,-678 228.5,-672 228.5,-672 228.5,-660 228.5,-660 228.5,-654 234.5,-648 240.5,-648 240.5,-648 295.5,-648 295.5,-648 301.5,-648 307.5,-654 307.5,-660 307.5,-660 307.5,-672 307.5,-672 307.5,-678 301.5,-684 295.5,-684"/>
<text text-anchor="middle" x="268" y="-663.5" font-family="sans" font-size="10.00" fill="#000000">hisat2_index</text>
</g>
<!-- 9 -->
<g id="node10" class="node">
<title>9</title>
<path fill="none" stroke="#b6d856" stroke-width="2" d="M427.5,-612C427.5,-612 356.5,-612 356.5,-612 350.5,-612 344.5,-606 344.5,-600 344.5,-600 344.5,-588 344.5,-588 344.5,-582 350.5,-576 356.5,-576 356.5,-576 427.5,-576 427.5,-576 433.5,-576 439.5,-582 439.5,-588 439.5,-588 439.5,-600 439.5,-600 439.5,-606 433.5,-612 427.5,-612"/>
<text text-anchor="middle" x="392" y="-591.5" font-family="sans" font-size="10.00" fill="#000000">hisat2_mapping</text>
</g>
<!-- 7&#45;&gt;9 -->
<g id="edge11" class="edge">
<title>7&#45;&gt;9</title>
<path fill="none" stroke="#c0c0c0" stroke-width="2" d="M299.2904,-647.8314C315.2977,-638.5368 334.9586,-627.1208 352.0494,-617.1971"/>
<polygon fill="#c0c0c0" stroke="#c0c0c0" stroke-width="2" points="353.8292,-620.211 360.7196,-612.1628 350.3142,-614.1575 353.8292,-620.211"/>
</g>
<!-- 22 -->
<g id="node23" class="node">
<title>22</title>
<path fill="none" stroke="#b6d856" stroke-width="2" d="M193.5,-612C193.5,-612 122.5,-612 122.5,-612 116.5,-612 110.5,-606 110.5,-600 110.5,-600 110.5,-588 110.5,-588 110.5,-582 116.5,-576 122.5,-576 122.5,-576 193.5,-576 193.5,-576 199.5,-576 205.5,-582 205.5,-588 205.5,-588 205.5,-600 205.5,-600 205.5,-606 199.5,-612 193.5,-612"/>
<text text-anchor="middle" x="158" y="-591.5" font-family="sans" font-size="10.00" fill="#000000">hisat2_mapping</text>
</g>
<!-- 7&#45;&gt;22 -->
<g id="edge26" class="edge">
<title>7&#45;&gt;22</title>
<path fill="none" stroke="#c0c0c0" stroke-width="2" d="M240.2424,-647.8314C226.303,-638.7074 209.2402,-627.539 194.2769,-617.7449"/>
<polygon fill="#c0c0c0" stroke="#c0c0c0" stroke-width="2" points="196.0326,-614.711 185.7488,-612.1628 192.199,-620.5679 196.0326,-614.711"/>
</g>
<!-- 8 -->
<g id="node9" class="node">
<title>8</title>
<path fill="none" stroke="#56d8d0" stroke-width="2" d="M446,-540C446,-540 352,-540 352,-540 346,-540 340,-534 340,-528 340,-528 340,-516 340,-516 340,-510 346,-504 352,-504 352,-504 446,-504 446,-504 452,-504 458,-510 458,-516 458,-516 458,-528 458,-528 458,-534 452,-540 446,-540"/>
<text text-anchor="middle" x="399" y="-519.5" font-family="sans" font-size="10.00" fill="#000000">samtools_sort_index</text>
</g>
<!-- 8&#45;&gt;6 -->
<g id="edge9" class="edge">
<title>8&#45;&gt;6</title>
<path fill="none" stroke="#c0c0c0" stroke-width="2" d="M402.5328,-503.8314C404.0301,-496.131 405.8105,-486.9743 407.4745,-478.4166"/>
<polygon fill="#c0c0c0" stroke="#c0c0c0" stroke-width="2" points="410.9465,-478.8975 409.4196,-468.4133 404.0752,-477.5614 410.9465,-478.8975"/>
</g>
<!-- 9&#45;&gt;8 -->
<g id="edge10" class="edge">
<title>9&#45;&gt;8</title>
<path fill="none" stroke="#c0c0c0" stroke-width="2" d="M393.7664,-575.8314C394.515,-568.131 395.4053,-558.9743 396.2373,-550.4166"/>
<polygon fill="#c0c0c0" stroke="#c0c0c0" stroke-width="2" points="399.7256,-550.7051 397.2098,-540.4133 392.7585,-550.0276 399.7256,-550.7051"/>
</g>
<!-- 10 -->
<g id="node11" class="node">
<title>10</title>
<path fill="none" stroke="#5673d8" stroke-width="2" d="M410,-684C410,-684 340,-684 340,-684 334,-684 328,-678 328,-672 328,-672 328,-660 328,-660 328,-654 334,-648 340,-648 340,-648 410,-648 410,-648 416,-648 422,-654 422,-660 422,-660 422,-672 422,-672 422,-678 416,-684 410,-684"/>
<text text-anchor="middle" x="375" y="-663.5" font-family="sans" font-size="10.00" fill="#000000">decompress_R1</text>
</g>
<!-- 10&#45;&gt;9 -->
<g id="edge12" class="edge">
<title>10&#45;&gt;9</title>
<path fill="none" stroke="#c0c0c0" stroke-width="2" d="M379.2898,-647.8314C381.108,-640.131 383.2699,-630.9743 385.2905,-622.4166"/>
<polygon fill="#c0c0c0" stroke="#c0c0c0" stroke-width="2" points="388.7608,-622.95 387.6524,-612.4133 381.9481,-621.3414 388.7608,-622.95"/>
</g>
<!-- 11 -->
<g id="node12" class="node">
<title>11</title>
<path fill="none" stroke="#d8c356" stroke-width="2" d="M448.5,-756C448.5,-756 413.5,-756 413.5,-756 407.5,-756 401.5,-750 401.5,-744 401.5,-744 401.5,-732 401.5,-732 401.5,-726 407.5,-720 413.5,-720 413.5,-720 448.5,-720 448.5,-720 454.5,-720 460.5,-726 460.5,-732 460.5,-732 460.5,-744 460.5,-744 460.5,-750 454.5,-756 448.5,-756"/>
<text text-anchor="middle" x="431" y="-735.5" font-family="sans" font-size="10.00" fill="#000000">cutadapt</text>
</g>
<!-- 11&#45;&gt;10 -->
<g id="edge14" class="edge">
<title>11&#45;&gt;10</title>
<path fill="none" stroke="#c0c0c0" stroke-width="2" d="M416.8688,-719.8314C410.4189,-711.5386 402.6555,-701.557 395.5748,-692.4533"/>
<polygon fill="#c0c0c0" stroke="#c0c0c0" stroke-width="2" points="398.2236,-690.158 389.3214,-684.4133 392.6981,-694.4556 398.2236,-690.158"/>
</g>
<!-- 13 -->
<g id="node14" class="node">
<title>13</title>
<path fill="none" stroke="#d87556" stroke-width="2" d="M522,-684C522,-684 452,-684 452,-684 446,-684 440,-678 440,-672 440,-672 440,-660 440,-660 440,-654 446,-648 452,-648 452,-648 522,-648 522,-648 528,-648 534,-654 534,-660 534,-660 534,-672 534,-672 534,-678 528,-684 522,-684"/>
<text text-anchor="middle" x="487" y="-663.5" font-family="sans" font-size="10.00" fill="#000000">decompress_R2</text>
</g>
<!-- 11&#45;&gt;13 -->
<g id="edge16" class="edge">
<title>11&#45;&gt;13</title>
<path fill="none" stroke="#c0c0c0" stroke-width="2" d="M445.1312,-719.8314C451.5811,-711.5386 459.3445,-701.557 466.4252,-692.4533"/>
<polygon fill="#c0c0c0" stroke="#c0c0c0" stroke-width="2" points="469.3019,-694.4556 472.6786,-684.4133 463.7764,-690.158 469.3019,-694.4556"/>
</g>
<!-- 12 -->
<g id="node13" class="node">
<title>12</title>
<path fill="none" stroke="#80d856" stroke-width="2" d="M469.5,-828C469.5,-828 392.5,-828 392.5,-828 386.5,-828 380.5,-822 380.5,-816 380.5,-816 380.5,-804 380.5,-804 380.5,-798 386.5,-792 392.5,-792 392.5,-792 469.5,-792 469.5,-792 475.5,-792 481.5,-798 481.5,-804 481.5,-804 481.5,-816 481.5,-816 481.5,-822 475.5,-828 469.5,-828"/>
<text text-anchor="middle" x="431" y="-813" font-family="sans" font-size="10.00" fill="#000000">umitools_extract</text>
<text text-anchor="middle" x="431" y="-802" font-family="sans" font-size="10.00" fill="#000000">sample: sample1</text>
</g>
<!-- 12&#45;&gt;11 -->
<g id="edge15" class="edge">
<title>12&#45;&gt;11</title>
<path fill="none" stroke="#c0c0c0" stroke-width="2" d="M431,-791.8314C431,-784.131 431,-774.9743 431,-766.4166"/>
<polygon fill="#c0c0c0" stroke="#c0c0c0" stroke-width="2" points="434.5001,-766.4132 431,-756.4133 427.5001,-766.4133 434.5001,-766.4132"/>
</g>
<!-- 13&#45;&gt;9 -->
<g id="edge13" class="edge">
<title>13&#45;&gt;9</title>
<path fill="none" stroke="#c0c0c0" stroke-width="2" d="M463.0275,-647.8314C451.2139,-638.8779 436.8028,-627.9558 424.0565,-618.2955"/>
<polygon fill="#c0c0c0" stroke="#c0c0c0" stroke-width="2" points="426.0486,-615.4137 415.9648,-612.1628 421.8205,-620.9925 426.0486,-615.4137"/>
</g>
<!-- 14 -->
<g id="node15" class="node">
<title>14</title>
<path fill="none" stroke="#56d89a" stroke-width="2" stroke-dasharray="5,2" d="M356.5,-324C356.5,-324 191.5,-324 191.5,-324 185.5,-324 179.5,-318 179.5,-312 179.5,-312 179.5,-300 179.5,-300 179.5,-294 185.5,-288 191.5,-288 191.5,-288 356.5,-288 356.5,-288 362.5,-288 368.5,-294 368.5,-300 368.5,-300 368.5,-312 368.5,-312 368.5,-318 362.5,-324 356.5,-324"/>
<text text-anchor="middle" x="274" y="-303.5" font-family="sans" font-size="10.00" fill="#000000">anno_to_base_remove_redundance</text>
</g>
<!-- 14&#45;&gt;3 -->
<g id="edge6" class="edge">
<title>14&#45;&gt;3</title>
<path fill="none" stroke="#c0c0c0" stroke-width="2" d="M287.1218,-287.8314C293.0499,-279.6232 300.1729,-269.7606 306.6933,-260.7323"/>
<polygon fill="#c0c0c0" stroke="#c0c0c0" stroke-width="2" points="309.684,-262.5693 312.7015,-252.4133 304.0092,-258.4708 309.684,-262.5693"/>
</g>
<!-- 17 -->
<g id="node18" class="node">
<title>17</title>
<path fill="none" stroke="#56c1d8" stroke-width="2" d="M253,-252C253,-252 191,-252 191,-252 185,-252 179,-246 179,-240 179,-240 179,-228 179,-228 179,-222 185,-216 191,-216 191,-216 253,-216 253,-216 259,-216 265,-222 265,-228 265,-228 265,-240 265,-240 265,-246 259,-252 253,-252"/>
<text text-anchor="middle" x="222" y="-231.5" font-family="sans" font-size="10.00" fill="#000000">format_output</text>
</g>
<!-- 14&#45;&gt;17 -->
<g id="edge21" class="edge">
<title>14&#45;&gt;17</title>
<path fill="none" stroke="#c0c0c0" stroke-width="2" d="M260.8782,-287.8314C254.9501,-279.6232 247.8271,-269.7606 241.3067,-260.7323"/>
<polygon fill="#c0c0c0" stroke="#c0c0c0" stroke-width="2" points="243.9908,-258.4708 235.2985,-252.4133 238.316,-262.5693 243.9908,-258.4708"/>
</g>
<!-- 15 -->
<g id="node16" class="node">
<title>15</title>
<path fill="none" stroke="#56d882" stroke-width="2" stroke-dasharray="5,2" d="M293,-396C293,-396 233,-396 233,-396 227,-396 221,-390 221,-384 221,-384 221,-372 221,-372 221,-366 227,-360 233,-360 233,-360 293,-360 293,-360 299,-360 305,-366 305,-372 305,-372 305,-384 305,-384 305,-390 299,-396 293,-396"/>
<text text-anchor="middle" x="263" y="-375.5" font-family="sans" font-size="10.00" fill="#000000">anno_to_base</text>
</g>
<!-- 15&#45;&gt;14 -->
<g id="edge17" class="edge">
<title>15&#45;&gt;14</title>
<path fill="none" stroke="#c0c0c0" stroke-width="2" d="M265.7758,-359.8314C266.9522,-352.131 268.3511,-342.9743 269.6586,-334.4166"/>
<polygon fill="#c0c0c0" stroke="#c0c0c0" stroke-width="2" points="273.1364,-334.8272 271.1869,-324.4133 266.2167,-333.7699 273.1364,-334.8272"/>
</g>
<!-- 16 -->
<g id="node17" class="node">
<title>16</title>
<path fill="none" stroke="#61d856" stroke-width="2" stroke-dasharray="5,2" d="M314,-468C314,-468 278,-468 278,-468 272,-468 266,-462 266,-456 266,-456 266,-444 266,-444 266,-438 272,-432 278,-432 278,-432 314,-432 314,-432 320,-432 326,-438 326,-444 326,-444 326,-456 326,-456 326,-462 320,-468 314,-468"/>
<text text-anchor="middle" x="296" y="-447.5" font-family="sans" font-size="10.00" fill="#000000">gtf2anno</text>
</g>
<!-- 16&#45;&gt;14 -->
<g id="edge18" class="edge">
<title>16&#45;&gt;14</title>
<path fill="none" stroke="#c0c0c0" stroke-width="2" d="M305.0662,-431.7373C312.9614,-413.3142 321.9902,-384.2107 314,-360 310.7092,-350.0288 304.7884,-340.3944 298.4936,-332.0924"/>
<polygon fill="#c0c0c0" stroke="#c0c0c0" stroke-width="2" points="301.172,-329.8384 292.1576,-324.2714 295.7328,-334.2448 301.172,-329.8384"/>
</g>
<!-- 16&#45;&gt;15 -->
<g id="edge19" class="edge">
<title>16&#45;&gt;15</title>
<path fill="none" stroke="#c0c0c0" stroke-width="2" d="M287.6727,-431.8314C284.027,-423.8771 279.6691,-414.369 275.6373,-405.5723"/>
<polygon fill="#c0c0c0" stroke="#c0c0c0" stroke-width="2" points="278.7877,-404.0456 271.4394,-396.4133 272.4243,-406.9622 278.7877,-404.0456"/>
</g>
<!-- 17&#45;&gt;2 -->
<g id="edge4" class="edge">
<title>17&#45;&gt;2</title>
<path fill="none" stroke="#c0c0c0" stroke-width="2" d="M235.1218,-215.8314C241.0499,-207.6232 248.1729,-197.7606 254.6933,-188.7323"/>
<polygon fill="#c0c0c0" stroke="#c0c0c0" stroke-width="2" points="257.684,-190.5693 260.7015,-180.4133 252.0092,-186.4708 257.684,-190.5693"/>
</g>
<!-- 18 -->
<g id="node19" class="node">
<title>18</title>
<path fill="none" stroke="#56d863" stroke-width="2" d="M146,-324C146,-324 116,-324 116,-324 110,-324 104,-318 104,-312 104,-312 104,-300 104,-300 104,-294 110,-288 116,-288 116,-288 146,-288 146,-288 152,-288 158,-294 158,-300 158,-300 158,-312 158,-312 158,-318 152,-324 146,-324"/>
<text text-anchor="middle" x="131" y="-303.5" font-family="sans" font-size="10.00" fill="#000000">pileup</text>
</g>
<!-- 18&#45;&gt;17 -->
<g id="edge20" class="edge">
<title>18&#45;&gt;17</title>
<path fill="none" stroke="#c0c0c0" stroke-width="2" d="M153.9631,-287.8314C165.1715,-278.9632 178.8209,-268.1637 190.9439,-258.5718"/>
<polygon fill="#c0c0c0" stroke="#c0c0c0" stroke-width="2" points="193.3737,-261.1125 199.0442,-252.1628 189.0303,-255.6229 193.3737,-261.1125"/>
</g>
<!-- 19 -->
<g id="node20" class="node">
<title>19</title>
<path fill="none" stroke="#d88d56" stroke-width="2" d="M190.5,-396C190.5,-396 43.5,-396 43.5,-396 37.5,-396 31.5,-390 31.5,-384 31.5,-384 31.5,-372 31.5,-372 31.5,-366 37.5,-360 43.5,-360 43.5,-360 190.5,-360 190.5,-360 196.5,-360 202.5,-366 202.5,-372 202.5,-372 202.5,-384 202.5,-384 202.5,-390 196.5,-396 190.5,-396"/>
<text text-anchor="middle" x="117" y="-375.5" font-family="sans" font-size="10.00" fill="#000000">samtools_sort_index_dedupped</text>
</g>
<!-- 19&#45;&gt;18 -->
<g id="edge22" class="edge">
<title>19&#45;&gt;18</title>
<path fill="none" stroke="#c0c0c0" stroke-width="2" d="M120.5328,-359.8314C122.0301,-352.131 123.8105,-342.9743 125.4745,-334.4166"/>
<polygon fill="#c0c0c0" stroke="#c0c0c0" stroke-width="2" points="128.9465,-334.8975 127.4196,-324.4133 122.0752,-333.5614 128.9465,-334.8975"/>
</g>
<!-- 20 -->
<g id="node21" class="node">
<title>20</title>
<path fill="none" stroke="#d85656" stroke-width="2" d="M169.5,-468C169.5,-468 98.5,-468 98.5,-468 92.5,-468 86.5,-462 86.5,-456 86.5,-456 86.5,-444 86.5,-444 86.5,-438 92.5,-432 98.5,-432 98.5,-432 169.5,-432 169.5,-432 175.5,-432 181.5,-438 181.5,-444 181.5,-444 181.5,-456 181.5,-456 181.5,-462 175.5,-468 169.5,-468"/>
<text text-anchor="middle" x="134" y="-447.5" font-family="sans" font-size="10.00" fill="#000000">umitools_dedup</text>
</g>
<!-- 20&#45;&gt;19 -->
<g id="edge23" class="edge">
<title>20&#45;&gt;19</title>
<path fill="none" stroke="#c0c0c0" stroke-width="2" d="M129.7102,-431.8314C127.892,-424.131 125.7301,-414.9743 123.7095,-406.4166"/>
<polygon fill="#c0c0c0" stroke="#c0c0c0" stroke-width="2" points="127.0519,-405.3414 121.3476,-396.4133 120.2392,-406.95 127.0519,-405.3414"/>
</g>
<!-- 21 -->
<g id="node22" class="node">
<title>21</title>
<path fill="none" stroke="#56d8d0" stroke-width="2" d="M189,-540C189,-540 95,-540 95,-540 89,-540 83,-534 83,-528 83,-528 83,-516 83,-516 83,-510 89,-504 95,-504 95,-504 189,-504 189,-504 195,-504 201,-510 201,-516 201,-516 201,-528 201,-528 201,-534 195,-540 189,-540"/>
<text text-anchor="middle" x="142" y="-519.5" font-family="sans" font-size="10.00" fill="#000000">samtools_sort_index</text>
</g>
<!-- 21&#45;&gt;20 -->
<g id="edge24" class="edge">
<title>21&#45;&gt;20</title>
<path fill="none" stroke="#c0c0c0" stroke-width="2" d="M139.9813,-503.8314C139.1257,-496.131 138.1083,-486.9743 137.1574,-478.4166"/>
<polygon fill="#c0c0c0" stroke="#c0c0c0" stroke-width="2" points="140.6289,-477.9656 136.0459,-468.4133 133.6717,-478.7386 140.6289,-477.9656"/>
</g>
<!-- 22&#45;&gt;21 -->
<g id="edge25" class="edge">
<title>22&#45;&gt;21</title>
<path fill="none" stroke="#c0c0c0" stroke-width="2" d="M153.9625,-575.8314C152.2513,-568.131 150.2165,-558.9743 148.3148,-550.4166"/>
<polygon fill="#c0c0c0" stroke="#c0c0c0" stroke-width="2" points="151.6779,-549.4159 146.0918,-540.4133 144.8446,-550.9344 151.6779,-549.4159"/>
</g>
<!-- 23 -->
<g id="node24" class="node">
<title>23</title>
<path fill="none" stroke="#5673d8" stroke-width="2" d="M82,-684C82,-684 12,-684 12,-684 6,-684 0,-678 0,-672 0,-672 0,-660 0,-660 0,-654 6,-648 12,-648 12,-648 82,-648 82,-648 88,-648 94,-654 94,-660 94,-660 94,-672 94,-672 94,-678 88,-684 82,-684"/>
<text text-anchor="middle" x="47" y="-663.5" font-family="sans" font-size="10.00" fill="#000000">decompress_R1</text>
</g>
<!-- 23&#45;&gt;22 -->
<g id="edge27" class="edge">
<title>23&#45;&gt;22</title>
<path fill="none" stroke="#c0c0c0" stroke-width="2" d="M75.01,-647.8314C89.0761,-638.7074 106.294,-627.539 121.3933,-617.7449"/>
<polygon fill="#c0c0c0" stroke="#c0c0c0" stroke-width="2" points="123.514,-620.5412 129.999,-612.1628 119.7047,-614.6684 123.514,-620.5412"/>
</g>
<!-- 24 -->
<g id="node25" class="node">
<title>24</title>
<path fill="none" stroke="#d8c356" stroke-width="2" d="M120.5,-756C120.5,-756 85.5,-756 85.5,-756 79.5,-756 73.5,-750 73.5,-744 73.5,-744 73.5,-732 73.5,-732 73.5,-726 79.5,-720 85.5,-720 85.5,-720 120.5,-720 120.5,-720 126.5,-720 132.5,-726 132.5,-732 132.5,-732 132.5,-744 132.5,-744 132.5,-750 126.5,-756 120.5,-756"/>
<text text-anchor="middle" x="103" y="-735.5" font-family="sans" font-size="10.00" fill="#000000">cutadapt</text>
</g>
<!-- 24&#45;&gt;23 -->
<g id="edge29" class="edge">
<title>24&#45;&gt;23</title>
<path fill="none" stroke="#c0c0c0" stroke-width="2" d="M88.8688,-719.8314C82.4189,-711.5386 74.6555,-701.557 67.5748,-692.4533"/>
<polygon fill="#c0c0c0" stroke="#c0c0c0" stroke-width="2" points="70.2236,-690.158 61.3214,-684.4133 64.6981,-694.4556 70.2236,-690.158"/>
</g>
<!-- 26 -->
<g id="node27" class="node">
<title>26</title>
<path fill="none" stroke="#d87556" stroke-width="2" d="M194,-684C194,-684 124,-684 124,-684 118,-684 112,-678 112,-672 112,-672 112,-660 112,-660 112,-654 118,-648 124,-648 124,-648 194,-648 194,-648 200,-648 206,-654 206,-660 206,-660 206,-672 206,-672 206,-678 200,-684 194,-684"/>
<text text-anchor="middle" x="159" y="-663.5" font-family="sans" font-size="10.00" fill="#000000">decompress_R2</text>
</g>
<!-- 24&#45;&gt;26 -->
<g id="edge31" class="edge">
<title>24&#45;&gt;26</title>
<path fill="none" stroke="#c0c0c0" stroke-width="2" d="M117.1312,-719.8314C123.5811,-711.5386 131.3445,-701.557 138.4252,-692.4533"/>
<polygon fill="#c0c0c0" stroke="#c0c0c0" stroke-width="2" points="141.3019,-694.4556 144.6786,-684.4133 135.7764,-690.158 141.3019,-694.4556"/>
</g>
<!-- 25 -->
<g id="node26" class="node">
<title>25</title>
<path fill="none" stroke="#80d856" stroke-width="2" d="M141.5,-828C141.5,-828 64.5,-828 64.5,-828 58.5,-828 52.5,-822 52.5,-816 52.5,-816 52.5,-804 52.5,-804 52.5,-798 58.5,-792 64.5,-792 64.5,-792 141.5,-792 141.5,-792 147.5,-792 153.5,-798 153.5,-804 153.5,-804 153.5,-816 153.5,-816 153.5,-822 147.5,-828 141.5,-828"/>
<text text-anchor="middle" x="103" y="-813" font-family="sans" font-size="10.00" fill="#000000">umitools_extract</text>
<text text-anchor="middle" x="103" y="-802" font-family="sans" font-size="10.00" fill="#000000">sample: sample2</text>
</g>
<!-- 25&#45;&gt;24 -->
<g id="edge30" class="edge">
<title>25&#45;&gt;24</title>
<path fill="none" stroke="#c0c0c0" stroke-width="2" d="M103,-791.8314C103,-784.131 103,-774.9743 103,-766.4166"/>
<polygon fill="#c0c0c0" stroke="#c0c0c0" stroke-width="2" points="106.5001,-766.4132 103,-756.4133 99.5001,-766.4133 106.5001,-766.4132"/>
</g>
<!-- 26&#45;&gt;22 -->
<g id="edge28" class="edge">
<title>26&#45;&gt;22</title>
<path fill="none" stroke="#c0c0c0" stroke-width="2" d="M158.7477,-647.8314C158.6407,-640.131 158.5135,-630.9743 158.3947,-622.4166"/>
<polygon fill="#c0c0c0" stroke="#c0c0c0" stroke-width="2" points="161.8944,-622.3637 158.2557,-612.4133 154.8951,-622.4609 161.8944,-622.3637"/>
</g>
</g>
</svg>
